 <svg  version="1.0" xmlns="http://www.w3.org/2000/svg"  width="300.000000pt" height="280.000000pt" viewBox="0 0 300.000000 280.000000"  preserveAspectRatio="xMidYMid meet">  <g transform="translate(0.000000,280.000000) scale(0.050000,-0.050000)" fill="#40d66f" stroke="none"> <path d="M2653 5570 c-7 -18 -24 -24 -46 -16 -23 9 -29 5 -19 -11 9 -15 -2 -23 -32 -24 -25 0 -81 -27 -125 -60 -66 -50 -96 -59 -195 -59 -64 0 -116 -7 -116 -15 0 -36 -123 -70 -167 -46 -24 12 -67 36 -97 53 -81 44 -216 -36 -284 -168 -18 -35 -36 -64 -40 -64 -40 0 -129 49 -119 65 9 14 1 17 -20 9 -18 -7 -33 -6 -33 3 0 8 -60 11 -133 6 -80 -5 -128 -1 -121 11 7 11 -31 21 -89 24 -70 3 -126 20 -180 56 -63 42 -87 48 -123 31 -70 -31 -174 -125 -174 -157 0 -15 -9 -28 -20 -28 -11 0 -20 -31 -20 -68 0 -38 -24 -114 -53 -170 -50 -97 -79 -302 -42 -302 52 0 60 -103 13 -165 -36 -49 -48 -92 -50 -175 -1 -76 -15 -131 -46 -180 -34 -54 -41 -86 -31 -140 16 -81 16 -107 6 -270 -6 -94 -20 -137 -65 -195 -41 -54 -54 -90 -47 -128 7 -34 -7 -86 -38 -144 -26 -50 -44 -103 -38 -117 5 -14 -4 -63 -20 -109 -16 -46 -25 -99 -19 -117 6 -18 -2 -69 -17 -112 -21 -58 -22 -85 -5 -102 92 -98 93 -131 11 -231 -60 -73 -89 -335 -37 -335 70 0 131 -143 144 -344 2 -18 7 -30 13 -26 31 19 6 -864 -26 -913 -30 -45 -30 -59 -6 -119 15 -37 23 -81 18 -96 -7 -18 -2 -22 15 -12 19 12 23 -1 15 -52 -8 -51 1 -83 36 -131 26 -34 41 -69 33 -78 -8 -8 -3 -9 10 -2 29 17 86 -61 86 -117 0 -23 31 -73 69 -111 39 -38 70 -80 70 -94 1 -19 526 -24 2476 -25 l2475 0 24 55 c14 30 38 87 54 127 16 39 44 83 62 98 73 60 147 176 158 246 7 41 34 119 62 173 l49 99 -54 65 -55 64 -11 402 c-10 394 -8 459 18 443 7 -5 15 11 17 35 13 130 37 208 91 287 98 146 92 283 -20 410 -17 20 -24 49 -16 70 7 20 13 38 12 41 -1 3 11 31 27 62 26 49 26 64 1 112 -35 67 -38 143 -6 163 15 9 12 19 -10 32 -22 12 -33 45 -33 98 0 44 -16 113 -36 154 -38 77 -44 155 -17 199 10 17 7 24 -10 20 -14 -3 -26 4 -26 15 -1 12 -21 42 -45 68 -53 57 -76 148 -50 195 12 20 12 58 1 95 -9 34 -16 89 -14 122 4 68 -77 216 -107 198 -11 -7 -7 8 10 35 61 98 60 182 -5 268 -73 96 -74 104 -11 189 28 39 42 73 30 80 -10 6 -18 44 -16 84 1 43 -16 103 -42 148 -25 41 -47 94 -49 117 -6 61 -59 191 -77 191 -9 0 -16 14 -16 30 0 17 -13 30 -28 30 -15 0 -33 14 -40 32 -9 23 -35 30 -97 26 -99 -6 -138 -17 -127 -35 5 -8 -4 -31 -19 -52 -28 -37 -189 -60 -189 -26 0 22 -202 3 -270 -26 -33 -14 -67 -24 -75 -22 -8 2 -15 -8 -15 -21 0 -19 -5 -19 -24 0 -13 13 -40 24 -60 24 -20 0 -47 23 -60 50 -12 28 -37 48 -54 45 -20 -3 -29 7 -25 25 3 16 0 23 -9 15 -8 -9 -34 2 -57 23 -38 36 -46 37 -111 9 -76 -32 -93 -33 -85 -4 3 11 -11 10 -33 -2 -28 -15 -53 -13 -93 8 -49 26 -88 26 -219 4 -21 -4 -51 5 -66 20 -15 15 -58 27 -97 27 -38 0 -65 8 -59 17 6 9 -30 37 -79 61 -49 25 -89 53 -89 63 0 35 -594 24 -607 -11z m409 -76 c74 -57 107 -524 37 -524 -22 0 -29 29 -29 121 l0 121 -106 -1 -106 -1 3 -506 c2 -279 -2 -512 -8 -517 -44 -45 -53 55 -53 625 l0 610 49 49 c54 54 158 65 213 23z m-502 -164 c0 -16 13 -30 29 -30 48 0 58 -42 13 -54 -23 -6 -42 -23 -42 -38 0 -16 -9 -28 -20 -28 -11 0 -20 14 -20 30 0 17 -17 30 -39 30 -61 0 -69 38 -12 60 28 10 51 28 51 40 0 11 9 20 20 20 11 0 20 -13 20 -30z m-372 -42 c49 -19 38 -48 -18 -48 -49 0 -64 19 -37 47 17 16 16 16 55 1z m1672 -18 c0 -19 -19 -30 -50 -30 -49 0 -64 19 -37 47 25 25 87 13 87 -17z m-2009 -31 c36 -39 35 -42 -7 -83 -64 -65 -141 0 -91 76 38 58 51 59 98 7z m1582 10 c7 -18 2 -42 -10 -54 -29 -29 -95 29 -74 63 20 32 70 27 84 -9z m728 0 c21 -26 20 -37 -7 -63 -47 -47 -104 -1 -68 56 29 46 41 47 75 7z m1039 -50 c0 -26 14 -39 40 -39 22 0 40 -13 40 -30 0 -16 -17 -30 -38 -30 -21 0 -42 -18 -48 -40 -13 -51 -54 -52 -54 -1 0 24 -16 41 -45 45 -25 3 -45 15 -45 26 0 11 20 23 45 26 27 4 45 21 45 42 0 19 6 41 13 48 21 21 47 -5 47 -47z m-4420 -8 c0 -14 18 -31 40 -37 22 -6 40 -20 40 -32 0 -12 -18 -22 -40 -22 -27 0 -40 -13 -40 -40 0 -22 -13 -40 -30 -40 -17 0 -30 18 -30 40 0 27 -13 40 -40 40 -51 0 -52 41 -2 54 21 5 43 28 49 50 11 42 53 32 53 -13z m526 -99 c68 -29 160 -119 180 -177 21 -57 -22 -40 -54 22 -33 64 -101 115 -180 134 -28 7 -47 21 -41 31 15 23 19 23 95 -10z m1138 -33 c63 -76 83 -1174 21 -1194 -20 -7 -25 109 -25 535 0 331 -8 557 -20 581 -60 112 -208 77 -196 -47 4 -46 22 -71 66 -93 90 -47 89 -41 90 -496 0 -365 -4 -425 -30 -425 -26 0 -30 60 -30 420 l0 419 -67 28 c-188 79 -105 355 97 322 33 -5 75 -27 94 -50z m276 -9 c0 -38 -9 -70 -20 -70 -11 0 -20 32 -20 70 0 39 9 70 20 70 11 0 20 -31 20 -70z m1039 41 c131 -68 104 -265 -44 -317 -50 -18 -54 -1358 -4 -1408 72 -72 -41 -192 -120 -127 -40 33 -40 119 -1 134 26 10 30 107 30 704 1 736 -2 717 90 764 83 42 94 142 23 189 -58 38 -117 18 -154 -51 -14 -27 -20 -239 -18 -624 3 -414 -3 -586 -19 -591 -19 -6 -40 931 -26 1196 6 129 124 192 243 131z m572 8 c22 -36 -32 -83 -64 -57 -21 18 -22 30 -5 51 27 32 51 35 69 6z m409 4 c0 -10 -26 -23 -57 -29 -147 -30 -250 -202 -204 -340 60 -183 268 -251 429 -142 44 31 73 41 68 25 -19 -56 -140 -117 -234 -117 -233 0 -386 261 -270 462 51 89 268 202 268 141z m-3064 -50 c4 -19 -6 -33 -23 -33 -38 0 -60 33 -42 61 18 29 58 13 65 -28z m-580 -130 c-120 -129 -136 -139 -136 -94 0 65 62 151 135 189 117 59 117 28 1 -95z m3064 68 c0 -15 14 -32 30 -38 38 -15 39 -53 2 -53 -15 0 -32 -18 -38 -40 -6 -22 -20 -40 -32 -40 -12 0 -22 18 -22 40 0 27 -13 40 -40 40 -51 0 -52 41 -2 54 21 5 43 28 49 50 11 42 53 32 53 -13z m714 -1 c78 -52 114 -145 89 -229 -78 -258 -443 -221 -443 45 0 189 193 289 354 184z m-3594 16 c0 -19 -267 -286 -286 -286 -21 0 250 299 271 300 8 0 15 -6 15 -14z m560 -26 c0 -22 13 -40 30 -40 17 0 30 -9 30 -20 0 -11 -12 -20 -28 -20 -15 0 -32 -18 -38 -40 -6 -22 -20 -40 -32 -40 -12 0 -22 18 -22 40 0 27 -13 40 -40 40 -22 0 -40 9 -40 20 0 11 18 20 40 20 27 0 40 13 40 40 0 22 13 40 30 40 17 0 30 -18 30 -40z m530 -40 c0 -37 -12 -52 -45 -56 -49 -7 -77 36 -57 87 20 53 102 28 102 -31z m1360 40 c22 -36 -11 -100 -52 -100 -44 0 -68 44 -51 90 13 34 84 41 103 10z m-2341 -59 c110 -211 -136 -441 -318 -298 l-54 43 156 157 c177 179 175 178 216 98z m1971 -12 c0 -16 13 -29 29 -29 47 0 58 -42 15 -53 -22 -6 -45 -28 -50 -49 -13 -50 -54 -49 -54 2 0 29 -13 40 -50 40 -64 0 -65 35 -2 51 27 7 53 31 59 53 11 43 53 32 53 -15z m-624 -106 c-3 -57 -15 -106 -26 -108 -22 -6 -39 173 -21 221 24 61 53 -10 47 -113z m2312 85 c20 -52 13 -138 -14 -176 -22 -30 -25 -17 -25 87 1 119 15 152 39 89z m-4128 -60 c0 -225 263 -376 428 -246 52 41 89 42 64 2 -86 -139 -372 -95 -487 74 -46 70 -65 242 -25 242 11 0 20 -32 20 -72z m-360 23 c0 -16 -10 -35 -22 -42 -28 -18 -67 21 -49 49 20 32 71 27 71 -7z m2563 -51 c24 -71 -7 -860 -34 -860 -31 0 -46 836 -16 867 20 19 43 16 50 -7z m2197 -29 c0 -14 19 -31 42 -37 44 -12 35 -54 -11 -54 -14 0 -31 -18 -37 -40 -6 -22 -20 -40 -32 -40 -12 0 -22 18 -22 40 0 27 -13 40 -40 40 -22 0 -40 13 -40 30 0 17 17 30 38 30 21 0 42 18 48 42 12 44 54 35 54 -11z m-4660 -1 c0 -17 18 -30 40 -30 22 0 40 -13 40 -30 0 -17 -18 -30 -40 -30 -27 0 -40 -13 -40 -40 0 -22 -9 -40 -20 -40 -11 0 -20 17 -20 39 0 23 -16 41 -41 45 -56 8 -59 45 -4 52 25 4 45 20 45 35 0 16 9 29 20 29 11 0 20 -13 20 -30z m1960 -30 c0 -22 -13 -40 -30 -40 -17 0 -30 18 -30 40 0 22 13 40 30 40 17 0 30 -18 30 -40z m1351 19 c18 -30 -33 -85 -57 -61 -22 22 -5 82 24 82 11 0 25 -9 33 -21z m-1940 -40 c7 -11 1 -34 -13 -51 -29 -36 -94 11 -69 50 17 28 65 28 82 1z m969 -249 c0 -173 -5 -210 -30 -210 -25 0 -30 37 -30 210 0 173 5 210 30 210 25 0 30 -37 30 -210z m-380 -270 c0 -378 -4 -440 -30 -440 -26 0 -30 62 -30 440 0 378 4 440 30 440 26 0 30 -62 30 -440z m115 260 c4 -149 0 -180 -25 -180 -24 0 -30 33 -30 180 0 255 48 255 55 0z m-486 121 c45 -49 24 -117 -40 -133 l-49 -12 0 -338 c0 -198 -8 -338 -19 -338 -33 0 -36 784 -3 825 36 45 67 44 111 -4z m1147 4 c67 -58 71 -113 15 -181 -49 -58 -51 -69 -51 -352 0 -246 -5 -292 -30 -292 -25 0 -30 45 -30 288 l0 289 -61 61 c-84 84 -40 222 72 222 24 0 63 -16 85 -35z m-1574 -37 c19 -17 40 -55 48 -84 7 -30 25 -67 40 -84 21 -23 30 -164 38 -599 10 -479 16 -572 42 -586 39 -22 39 -103 0 -135 -76 -63 -176 34 -128 123 15 28 23 134 22 281 -1 130 -2 381 -3 558 l-1 322 -62 -52 c-127 -108 -278 -33 -278 138 0 139 177 213 282 118z m2516 0 c50 -42 62 -67 62 -131 0 -160 -155 -229 -278 -125 l-62 52 0 -588 c0 -409 7 -595 23 -611 31 -31 5 -120 -40 -134 -98 -31 -165 87 -86 151 42 34 43 45 43 617 0 481 5 584 28 593 15 6 34 41 41 79 26 138 162 187 269 97z m-418 -29 c0 -22 -13 -39 -30 -39 -30 0 -42 61 -17 86 21 21 47 -5 47 -47z m-3357 -180 c5 -77 -15 -126 -44 -108 -22 13 -26 175 -5 196 23 23 44 -14 49 -88z m3357 -239 c0 -289 -5 -340 -30 -340 -25 0 -30 51 -30 340 0 289 5 340 30 340 25 0 30 -51 30 -340z m1496 219 c-6 -79 -56 -143 -56 -71 0 18 -13 32 -30 32 -16 0 -30 9 -30 20 0 11 14 20 30 20 18 0 30 19 30 47 0 25 6 52 14 60 28 28 48 -24 42 -108z m-4469 -24 l41 -55 -44 -59 c-43 -58 -44 -70 -44 -761 l0 -702 49 -49 c44 -43 67 -49 200 -49 121 0 151 -6 151 -30 0 -101 -372 -23 -430 90 -56 108 -43 1453 14 1514 40 43 41 49 11 79 -97 98 -135 -22 -135 -426 0 -255 -6 -328 -25 -322 -55 19 -33 723 24 784 62 66 132 61 188 -14z m2853 -237 c0 -232 -6 -299 -25 -293 -41 14 -46 595 -6 595 26 0 31 -45 31 -302z m1359 263 c58 -58 63 -97 57 -461 -5 -270 -11 -330 -35 -330 -23 0 -27 56 -23 336 5 348 -12 434 -86 434 -61 0 -80 -59 -35 -107 57 -60 68 -1406 13 -1513 -58 -112 -410 -190 -410 -90 0 24 29 30 141 30 123 0 147 6 190 49 l49 49 0 702 c0 681 -1 703 -42 758 -89 121 75 249 181 143z m-2895 -381 c2 -220 4 -425 5 -455 1 -36 -9 -55 -29 -55 -27 0 -50 835 -24 895 31 72 45 -39 48 -385z m1196 100 c0 -173 -8 -280 -20 -280 -12 0 -20 107 -20 280 0 173 8 280 20 280 12 0 20 -107 20 -280z m-2363 193 c43 -46 44 -54 38 -590 -7 -733 -43 -735 -50 -2 -5 456 -10 542 -35 552 -31 12 -43 87 -13 87 9 0 36 -21 60 -47z m3788 -27 c-45 -31 -45 -33 -45 -568 0 -465 -4 -538 -30 -538 -26 0 -30 74 -30 549 l0 548 53 42 c40 31 60 36 75 20 16 -17 10 -31 -23 -53z m-3356 -72 c-16 -42 -37 -43 -69 -4 -20 24 -20 36 1 61 33 40 87 -6 68 -57z m1211 -144 c0 -191 -5 -230 -30 -230 -25 0 -30 39 -30 230 0 191 5 230 30 230 25 0 30 -39 30 -230z m1781 141 c-33 -39 -59 -39 -74 -1 -20 52 33 99 70 62 24 -25 25 -36 4 -61z m-3981 -51 c0 -22 13 -40 29 -40 48 0 58 -42 13 -54 -24 -6 -42 -27 -42 -48 0 -21 -9 -38 -20 -38 -11 0 -20 18 -20 40 0 27 -13 40 -40 40 -22 0 -40 13 -40 30 0 17 18 30 40 30 27 0 40 13 40 40 0 22 9 40 20 40 11 0 20 -18 20 -40z m1157 -41 c-11 -70 -57 -73 -57 -4 0 32 6 64 14 72 23 23 50 -20 43 -68z m363 -101 c0 -136 -6 -179 -25 -173 -40 13 -46 355 -6 355 26 0 31 -31 31 -182z m2240 -209 c0 -315 -4 -369 -30 -369 -31 0 -48 716 -17 746 37 37 47 -42 47 -377z m-2920 261 c0 -40 10 -50 52 -50 62 0 55 -47 -9 -56 -26 -4 -43 -21 -43 -44 0 -21 -9 -43 -20 -50 -11 -7 -20 10 -20 39 0 41 -10 51 -50 51 -63 0 -67 55 -5 64 25 3 46 20 48 36 5 55 7 60 27 60 11 0 20 -22 20 -50z m1480 -286 c0 -223 8 -344 23 -359 66 -66 -36 -167 -116 -115 -58 38 -60 79 -7 125 37 31 40 59 40 346 0 172 6 318 13 326 39 38 47 -16 47 -323z m2540 228 c0 -16 10 -32 23 -36 16 -6 12 -25 -12 -62 -39 -59 -71 -71 -71 -26 0 15 -13 33 -30 39 -16 7 -30 21 -30 32 0 12 14 21 30 21 17 0 30 14 30 30 0 17 14 30 30 30 17 0 30 -13 30 -28z m-3704 -75 c-9 -120 -56 -127 -56 -9 0 70 7 92 31 92 24 0 30 -19 25 -83z m2482 -155 c35 -23 11 -62 -39 -62 -38 0 -53 39 -26 67 18 17 31 16 65 -5z m-2338 -32 c0 -24 -33 -30 -175 -30 -287 -1 -265 94 -265 -1169 0 -921 -4 -1051 -30 -1051 -26 0 -30 131 -30 1061 0 1301 -22 1217 315 1218 151 1 185 -4 185 -29z m320 -1 c0 -24 -19 -30 -83 -25 -120 9 -127 56 -9 56 70 0 92 -7 92 -31z m595 6 c-6 -18 -69 -25 -225 -25 -156 0 -219 7 -225 25 -6 19 47 25 225 25 178 0 231 -6 225 -25z m820 0 c-6 -19 -91 -25 -335 -25 -244 0 -329 6 -335 25 -6 19 69 25 335 25 266 0 341 -6 335 -25z m380 0 c-5 -16 -47 -25 -115 -25 -68 0 -110 9 -115 25 -6 18 25 25 115 25 90 0 121 -7 115 -25z m546 4 c98 -52 99 -64 99 -1198 0 -930 -4 -1061 -30 -1061 -26 0 -30 130 -30 1051 0 1182 2 1168 -145 1169 -35 0 -55 11 -55 30 0 35 101 41 161 9z m-2661 -119 c0 -12 -63 -20 -150 -20 -189 0 -172 103 -166 -1020 l6 -930 1440 0 1440 0 5 967 c5 954 5 967 -35 977 -46 12 -54 46 -11 46 91 0 91 -5 91 -1020 0 -843 -4 -961 -31 -989 -37 -36 -2851 -48 -2909 -11 -43 27 -45 1935 -3 1987 32 38 323 49 323 13z m320 0 c0 -11 -36 -20 -80 -20 -44 0 -80 9 -80 20 0 11 36 20 80 20 44 0 80 -9 80 -20z m600 0 c0 -12 -87 -20 -220 -20 -133 0 -220 8 -220 20 0 12 87 20 220 20 133 0 220 -8 220 -20z m540 0 c0 -12 -80 -20 -200 -20 -120 0 -200 8 -200 20 0 12 80 20 200 20 120 0 200 -8 200 -20z m270 0 c-7 -11 -61 -20 -121 -20 -60 0 -109 9 -109 20 0 11 54 20 121 20 76 0 117 -8 109 -20z m370 0 c0 -11 -44 -20 -99 -20 -54 0 -104 9 -111 20 -8 12 30 20 99 20 61 0 111 -9 111 -20z m-2260 -319 c0 -124 -9 -224 -20 -231 -13 -8 -20 70 -20 219 0 141 8 231 20 231 12 0 20 -86 20 -219z m960 199 c0 -11 -53 -20 -120 -20 -67 0 -120 9 -120 20 0 11 53 20 120 20 67 0 120 -9 120 -20z m-1960 -30 c0 -21 -327 -39 -375 -21 -15 6 -22 20 -15 32 17 27 390 17 390 -11z m4950 0 c0 -12 -89 -22 -215 -26 -184 -5 -215 -1 -215 26 0 27 31 31 215 26 126 -4 215 -14 215 -26z m-3100 -50 c7 -12 -13 -20 -49 -20 -33 0 -61 9 -61 20 0 11 22 20 49 20 27 0 54 -9 61 -20z m-1498 -226 c4 -158 0 -194 -23 -194 -23 0 -29 40 -29 202 0 275 45 269 52 -8z m3918 6 c0 -132 -7 -189 -25 -195 -19 -6 -25 41 -25 195 0 154 6 201 25 195 18 -6 25 -63 25 -195z m-4170 160 c0 -11 -57 -20 -131 -20 -83 0 -127 7 -119 20 7 11 66 20 131 20 66 0 119 -9 119 -20z m4600 0 c0 -11 -53 -20 -120 -20 -67 0 -120 9 -120 20 0 11 53 20 120 20 67 0 120 -9 120 -20z m-3212 -36 c15 -26 -21 -70 -46 -55 -32 19 -27 71 7 71 16 0 33 -7 39 -16z m112 -24 c0 -22 -13 -40 -30 -40 -17 0 -30 18 -30 40 0 22 13 40 30 40 17 0 30 -18 30 -40z m120 0 c0 -22 -13 -40 -30 -40 -17 0 -30 18 -30 40 0 22 13 40 30 40 17 0 30 -18 30 -40z m111 18 c21 -33 -26 -71 -53 -44 -23 23 -9 66 22 66 10 0 24 -10 31 -22z m109 -18 c0 -22 -13 -40 -30 -40 -17 0 -30 18 -30 40 0 22 13 40 30 40 17 0 30 -18 30 -40z m451 18 c21 -33 -26 -71 -53 -44 -23 23 -9 66 22 66 10 0 24 -10 31 -22z m109 -18 c0 -22 -13 -40 -30 -40 -17 0 -30 18 -30 40 0 22 13 40 30 40 17 0 30 -18 30 -40z m120 0 c0 -22 -13 -40 -30 -40 -17 0 -30 18 -30 40 0 22 13 40 30 40 17 0 30 -18 30 -40z m-2763 -29 c68 -35 103 -107 103 -214 0 -106 -48 -94 -56 15 -11 127 -105 197 -212 156 -44 -17 -40 -73 8 -103 37 -24 40 -47 40 -325 0 -273 4 -304 40 -340 23 -23 40 -67 40 -101 0 -117 66 -199 162 -199 21 0 38 -13 38 -30 0 -71 -161 -24 -205 59 -52 100 -127 2 -83 -108 47 -118 141 -160 363 -161 205 0 216 -31 18 -49 -256 -24 -405 50 -452 224 -16 60 -34 84 -71 93 -156 39 -113 332 48 332 64 0 65 526 2 560 -58 31 -55 147 4 189 56 39 141 40 213 2z m5059 -2 c62 -44 57 -189 -8 -189 -23 0 -28 -54 -28 -278 l0 -279 60 -13 c156 -34 183 -283 34 -321 -32 -8 -56 -40 -80 -110 -59 -165 -135 -207 -379 -208 -276 -1 -293 41 -21 52 222 10 293 41 339 150 55 133 -16 187 -115 88 -67 -67 -178 -86 -178 -31 0 18 19 30 45 31 85 1 155 94 155 208 0 25 18 68 40 96 36 46 40 82 40 355 0 287 2 304 40 314 77 20 31 106 -58 106 -71 0 -142 -74 -142 -148 -1 -75 -27 -122 -58 -103 -28 17 -28 91 -1 165 46 127 211 187 315 115z m-1296 -79 c0 -51 -27 -67 -51 -29 -16 27 4 79 30 79 12 0 21 -22 21 -50z m-1560 -79 c0 -24 -54 -30 -302 -35 -303 -6 -355 1 -329 42 22 37 631 30 631 -7z m451 8 c7 -12 7 -27 0 -34 -12 -13 -355 -8 -368 5 -30 30 43 50 187 50 97 0 173 -9 181 -21z m1009 -169 c0 -87 -8 -150 -20 -150 -12 0 -20 63 -20 150 0 87 8 150 20 150 12 0 20 -63 20 -150z m100 -342 c0 -379 -6 -489 -24 -483 -19 6 -25 90 -23 316 3 570 7 659 27 659 13 0 20 -177 20 -492z m-519 430 c12 -23 17 -47 11 -53 -14 -13 -92 53 -92 78 0 34 59 16 81 -25z m-3241 -78 c0 -76 -7 -100 -30 -100 -23 0 -30 24 -30 100 0 76 7 100 30 100 23 0 30 -24 30 -100z m4900 0 c0 -76 -7 -100 -30 -100 -23 0 -30 24 -30 100 0 76 7 100 30 100 23 0 30 -24 30 -100z m-3625 25 c11 -33 -52 -56 -79 -29 -11 11 -14 31 -6 43 17 29 74 19 85 -14z m790 5 c3 -12 -93 -22 -250 -26 -233 -5 -281 4 -241 43 22 22 485 6 491 -17z m410 -5 c6 -19 -33 -25 -153 -25 -150 0 -184 11 -148 47 25 25 292 5 301 -22z m541 2 c-10 -52 -456 -54 -456 -2 0 31 24 35 231 35 205 0 231 -4 225 -33z m-2409 -95 c35 -37 83 -73 108 -81 47 -14 58 -40 26 -60 -25 -16 -161 41 -161 67 0 37 -64 83 -100 72 -40 -13 -70 18 -50 50 27 43 115 19 177 -48z m3803 28 c0 -17 -22 -33 -50 -36 -27 -4 -72 -33 -100 -64 -60 -69 -160 -102 -160 -53 0 18 23 38 50 45 28 7 50 21 50 31 0 10 23 41 50 69 56 56 160 61 160 8z m-4182 -32 c7 -17 12 -71 12 -120 0 -105 103 -237 201 -258 85 -19 81 -79 -4 -62 -155 31 -257 174 -257 360 0 108 23 146 48 80z m912 -258 c0 -180 -8 -290 -20 -290 -12 0 -20 110 -20 290 0 180 8 290 20 290 12 0 20 -110 20 -290z m3517 153 c-7 -113 -18 -151 -65 -212 -80 -104 -252 -173 -252 -101 0 17 16 30 35 30 112 1 225 147 225 292 0 56 6 107 13 115 38 37 51 1 44 -124z m-3382 82 c5 -16 -11 -25 -43 -25 -51 0 -66 19 -38 47 21 21 71 7 81 -22z m385 5 c0 -19 -19 -30 -50 -30 -49 0 -64 19 -37 47 25 25 87 13 87 -17z m635 -5 c6 -19 -57 -25 -273 -25 -240 0 -282 5 -282 31 0 40 541 35 555 -6z m2896 -103 c-45 -45 -111 17 -68 64 24 27 31 27 63 -2 32 -28 32 -34 5 -62z m-5471 58 c26 -16 26 -23 -4 -53 -44 -43 -113 -1 -74 46 27 32 38 33 78 7z m380 -227 c0 -200 5 -234 41 -280 44 -56 37 -99 -12 -80 -86 33 -141 587 -59 587 25 0 30 -39 30 -227z m4687 45 c17 -238 2 -328 -65 -381 -46 -36 -53 -37 -59 -7 -3 18 10 45 30 60 32 23 38 62 44 268 8 286 32 315 50 60z m-3507 123 c0 -10 -9 -24 -21 -32 -29 -18 -84 6 -69 31 16 25 90 26 90 1z m375 -16 c11 -33 -52 -56 -79 -29 -11 11 -14 31 -6 43 17 29 74 19 85 -14z m399 2 c5 -15 -46 -26 -158 -31 -167 -9 -212 1 -187 43 19 30 335 19 345 -12z m237 11 c21 -33 -26 -71 -53 -44 -23 23 -9 66 22 66 10 0 24 -10 31 -22z m109 -20 c0 -48 -47 -42 -56 9 -4 19 6 33 25 33 18 0 31 -17 31 -42z m395 7 c11 -33 -52 -56 -79 -29 -11 11 -14 31 -6 43 17 29 74 19 85 -14z m654 17 c24 -39 -50 -55 -249 -53 -181 2 -211 7 -216 37 -8 38 441 54 465 16z m-2174 -117 c5 -16 -11 -25 -43 -25 -51 0 -66 19 -38 47 21 21 71 7 81 -22z m336 -27 c21 -33 -26 -71 -53 -44 -23 23 -9 66 22 66 10 0 24 -10 31 -22z m479 -18 c0 -32 -73 -51 -124 -31 -25 9 -26 17 -5 42 32 39 129 30 129 -11z m1000 0 c0 -26 -67 -31 -465 -35 -455 -6 -512 2 -457 57 28 27 922 6 922 -22z m570 -60 c0 -33 -9 -60 -20 -60 -11 0 -20 27 -20 60 0 33 9 60 20 60 11 0 20 -27 20 -60z m-2391 1 c6 -10 2 -24 -10 -31 -29 -19 -84 5 -69 30 16 25 64 26 79 1z m2219 -33 c50 -131 31 -287 -28 -228 -38 38 -155 84 -240 94 -55 6 -100 22 -100 34 0 88 338 179 368 100z m-2728 -38 c0 -23 -26 -30 -110 -30 -84 0 -110 7 -110 30 0 23 26 30 110 30 84 0 110 -7 110 -30z m1235 5 c-6 -18 -67 -25 -215 -25 -148 0 -209 7 -215 25 -6 19 45 25 215 25 170 0 221 -6 215 -25z m830 -5 c-5 -21 -671 -40 -721 -21 -14 6 -21 20 -14 31 17 28 742 18 735 -10z m1475 0 c0 -23 -24 -30 -100 -30 -76 0 -100 7 -100 30 0 23 24 30 100 30 76 0 100 -7 100 -30z m-3025 -55 c-5 -14 -25 -25 -45 -25 -20 0 -40 11 -45 25 -5 16 11 25 45 25 34 0 50 -9 45 -25z m385 -66 c0 -21 -15 -30 -43 -25 -64 9 -71 56 -9 56 34 0 52 -11 52 -31z m600 1 c0 -25 -42 -30 -260 -30 -218 0 -260 5 -260 30 0 25 42 30 260 30 218 0 260 -5 260 -30z m2050 10 c-7 -11 -34 -20 -61 -20 -27 0 -49 9 -49 20 0 11 28 20 61 20 36 0 56 -8 49 -20z m-3035 -55 c5 -16 -11 -25 -43 -25 -51 0 -66 19 -38 47 21 21 71 7 81 -22z m-775 -55 c0 -34 -268 -45 -288 -13 -20 33 15 43 151 43 108 0 137 -6 137 -30z m260 0 c0 -23 -26 -30 -110 -30 -84 0 -110 7 -110 30 0 23 26 30 110 30 84 0 110 -7 110 -30z m1660 -10 c0 -22 -12 -40 -27 -40 -37 0 -52 19 -39 52 16 42 66 33 66 -12z m1880 10 c0 -23 -24 -30 -100 -30 -76 0 -100 7 -100 30 0 23 24 30 100 30 76 0 100 -7 100 -30z m320 0 c0 -24 -28 -30 -130 -30 -102 0 -130 6 -130 30 0 24 28 30 130 30 102 0 130 -6 130 -30z m-2435 -20 c-8 -32 -610 -26 -620 6 -7 20 58 24 308 20 199 -4 315 -13 312 -26z m-910 -35 c-5 -14 -25 -25 -45 -25 -20 0 -40 11 -45 25 -5 16 11 25 45 25 34 0 50 -9 45 -25z m2385 -15 c0 -22 1 -47 2 -54 0 -8 -9 -18 -20 -22 -13 -4 -22 19 -22 54 0 34 9 62 20 62 11 0 20 -18 20 -40z m-920 -8 c0 -32 -75 -57 -91 -30 -18 28 9 58 52 58 22 0 39 -12 39 -28z m616 -7 c-7 -40 -504 -65 -542 -27 -48 48 17 62 279 62 246 0 269 -3 263 -35z m-3092 -62 c-7 -46 -7 -46 144 -50 163 -5 143 -53 -22 -53 -161 0 -246 73 -172 147 26 26 56 -1 50 -44z m416 37 c0 -11 -49 -20 -110 -20 -60 0 -110 9 -110 20 0 11 50 20 110 20 61 0 110 -9 110 -20z m3690 0 c-7 -11 -62 -20 -122 -20 -69 0 -106 8 -98 20 7 11 62 20 122 20 69 0 106 -8 98 -20z m267 -38 c11 -77 -30 -102 -171 -102 -168 0 -167 47 2 56 93 5 114 12 111 40 -6 56 0 68 26 59 14 -4 28 -28 32 -53z m-3362 -17 c5 -16 -11 -25 -43 -25 -51 0 -66 19 -38 47 21 21 71 7 81 -22z m310 -37 c21 -47 18 -57 -24 -91 -81 -66 -184 37 -111 111 49 48 107 39 135 -20z m405 -8 c0 -23 -32 -31 -148 -36 -146 -6 -200 11 -173 55 23 37 321 19 321 -19z m886 11 c36 -37 -49 -51 -307 -51 -283 0 -331 12 -275 67 13 14 567 -2 582 -16z m564 -22 c0 -24 -43 -29 -230 -29 -189 0 -230 5 -230 29 0 24 42 31 215 35 239 7 245 6 245 -35z m-2685 -4 c6 -18 -21 -25 -93 -25 -96 0 -121 14 -88 48 23 23 172 4 181 -23z m3540 0 c6 -18 -21 -25 -93 -25 -96 0 -121 14 -88 48 23 23 172 4 181 -23z m-3026 -76 c40 -40 39 -67 -2 -112 -52 -58 -147 -24 -147 53 0 15 14 41 31 59 18 17 44 31 59 31 15 0 41 -14 59 -31z m591 -40 c0 -19 -14 -29 -33 -25 -51 9 -57 56 -9 56 25 0 42 -13 42 -31z m495 6 c-13 -41 -415 -46 -415 -6 0 26 35 31 212 31 160 0 209 -6 203 -25z m700 0 c-14 -41 -595 -46 -595 -6 0 26 45 31 302 31 232 0 299 -6 293 -25z m-2295 -15 c0 -12 -67 -20 -160 -20 -93 0 -160 8 -160 20 0 12 67 20 160 20 93 0 160 -8 160 -20z m3635 -5 c-6 -17 -54 -25 -145 -25 -92 0 -139 8 -145 25 -6 19 31 25 145 25 114 0 151 -6 145 -25z m-4005 -137 c0 -47 4 -48 185 -54 268 -8 271 -64 4 -64 -236 0 -311 42 -258 143 28 51 69 37 69 -25z m1800 32 c0 -12 -122 -22 -315 -26 -274 -4 -315 -1 -315 26 0 27 41 30 315 26 193 -4 315 -14 315 -26z m485 5 c-13 -41 -395 -46 -395 -6 0 26 34 31 202 31 152 0 199 -6 193 -25z m1841 1 c35 -35 30 -70 -16 -116 -53 -53 -400 -61 -400 -10 0 24 32 30 169 30 174 0 206 14 194 85 -6 40 18 46 53 11z m-3756 -16 c0 -12 -63 -20 -150 -20 -87 0 -150 8 -150 20 0 12 63 20 150 20 87 0 150 -8 150 -20z m3620 0 c0 -11 -60 -20 -140 -20 -80 0 -140 9 -140 20 0 11 60 20 140 20 80 0 140 -9 140 -20z m-4407 -139 c276 -184 363 -391 258 -616 -62 -132 -79 -132 -104 3 -18 101 -16 112 36 185 54 76 71 127 42 127 -8 0 -36 -33 -62 -73 l-47 -73 -41 93 c-22 51 -47 93 -56 93 -38 0 -34 -38 15 -137 57 -115 51 -141 -25 -106 -61 28 -109 30 -109 5 0 -11 45 -34 100 -52 110 -36 158 -170 62 -170 -151 0 -222 167 -222 519 0 317 -6 309 153 202z m5050 -216 c-8 -331 -27 -400 -132 -465 -90 -55 -139 -53 -124 5 7 25 13 56 13 69 0 13 45 40 100 60 55 19 100 43 100 53 0 18 -78 8 -145 -18 -46 -18 -45 18 5 128 45 99 49 123 19 123 -12 0 -39 -40 -61 -90 -48 -108 -44 -107 -98 -20 -24 39 -52 65 -62 59 -21 -13 9 -80 65 -141 32 -35 35 -58 22 -148 -19 -136 -46 -144 -101 -30 -109 224 -13 455 265 643 146 98 142 103 134 -228z m-4781 165 c0 -11 -19 -23 -41 -26 -40 -7 -54 16 -27 43 19 20 68 7 68 -17z m255 -143 c-5 -23 -28 -39 -62 -43 -66 -8 -69 8 -11 70 47 50 85 36 73 -27z m543 53 c0 -11 -26 -20 -59 -20 -32 0 -64 9 -71 20 -7 12 16 20 59 20 39 0 71 -9 71 -20z m300 0 c0 -11 -53 -20 -120 -20 -67 0 -120 9 -120 20 0 11 53 20 120 20 67 0 120 -9 120 -20z m2420 0 c0 -13 -410 -20 -1190 -20 -780 0 -1190 7 -1190 20 0 13 410 20 1190 20 780 0 1190 -7 1190 -20z m180 0 c0 -11 -27 -20 -60 -20 -33 0 -60 9 -60 20 0 11 27 20 60 20 33 0 60 -9 60 -20z m520 -83 c0 -10 -22 -17 -50 -17 -43 0 -50 9 -50 63 l0 64 50 -47 c28 -26 50 -54 50 -63z m-3837 50 c53 -47 46 -67 -23 -67 -51 0 -60 8 -60 50 0 58 31 64 83 17z m3697 -17 c0 -42 -9 -50 -60 -50 -69 0 -74 12 -27 63 47 52 87 46 87 -13z m-272 -145 c-29 -263 81 -247 -1650 -240 l-1477 5 -52 52 c-41 41 -55 78 -63 175 l-12 123 1633 0 1633 0 -12 -115z m-3462 -135 c37 -15 34 -97 -4 -136 -27 -27 -157 63 -167 116 -13 71 34 76 171 20z m3854 5 c-1 -69 -135 -187 -171 -150 -51 50 -17 144 61 167 109 34 110 34 110 -17z m-3708 -147 c41 -98 36 -108 -54 -108 -57 0 -79 8 -73 25 5 14 21 58 36 99 30 84 51 80 91 -16z m3485 15 c34 -114 30 -123 -47 -123 -81 0 -88 26 -38 132 42 87 56 86 85 -9z m-3677 -106 c0 -10 -18 -17 -40 -17 -22 0 -40 13 -40 28 0 16 -6 45 -13 65 -11 30 -3 28 40 -11 29 -27 53 -56 53 -65z m3861 36 c-13 -34 -35 -53 -61 -53 -49 0 -26 64 35 98 46 25 50 18 26 -45z m-4002 10 c26 -50 9 -63 -82 -63 -86 0 -92 10 -44 63 43 48 100 47 126 0z m4177 13 c47 -47 26 -76 -56 -76 -80 0 -90 10 -68 68 14 38 90 42 124 8z m-1702 -109 c24 -94 67 -147 120 -147 14 0 26 -11 26 -25 0 -19 -131 -25 -590 -25 -564 0 -710 16 -542 58 44 11 87 90 122 222 3 13 158 19 422 17 l417 -3 25 -97z m-1699 -42 c7 -20 -147 -25 -722 -25 -664 0 -779 7 -739 47 26 27 1452 5 1461 -22z m175 5 c0 -11 -20 -23 -45 -26 -31 -5 -45 3 -45 26 0 23 14 31 45 26 25 -3 45 -15 45 -26z m2250 0 c0 -19 -19 -30 -50 -30 -31 0 -50 11 -50 30 0 19 19 30 50 30 31 0 50 -11 50 -30z m1560 0 c0 -26 -96 -30 -740 -30 -676 0 -767 6 -727 47 32 31 1467 15 1467 -17z m-5000 -130 c0 -11 -46 -20 -101 -20 -63 0 -97 8 -89 20 7 11 52 20 101 20 49 0 89 -9 89 -20z m660 0 c0 -12 -117 -20 -311 -20 -203 0 -307 7 -299 20 7 12 134 20 311 20 186 0 299 -8 299 -20z m96 -24 c-45 -67 -83 -73 -53 -8 13 29 37 52 53 52 25 0 25 -5 0 -44z m3844 24 c0 -11 -53 -20 -120 -20 -67 0 -120 9 -120 20 0 11 53 20 120 20 67 0 120 -9 120 -20z m340 0 c0 -12 -64 -20 -151 -20 -96 0 -147 7 -139 20 7 11 75 20 151 20 79 0 139 -9 139 -20z m-3970 -20 c-7 -11 -29 -20 -50 -20 -41 0 -80 -45 -168 -193 -32 -53 -62 -87 -66 -74 -9 26 122 244 170 282 38 30 132 34 114 5z m220 0 c-7 -11 -43 -20 -81 -20 -38 0 -69 9 -69 20 0 11 37 20 81 20 49 0 76 -8 69 -20z m430 0 c0 -12 -77 -20 -190 -20 -113 0 -190 8 -190 20 0 12 77 20 190 20 113 0 190 -8 190 -20z m1730 0 c-7 -11 -104 -20 -221 -20 -126 0 -209 8 -209 20 0 12 87 20 221 20 143 0 217 -7 209 -20z m374 -130 c52 -77 94 -151 95 -165 2 -47 -30 -25 -69 49 -99 184 -144 226 -239 226 -49 0 -94 9 -102 21 -8 14 26 19 104 15 l117 -6 94 -140z m646 -2 c144 -192 135 -210 -104 -191 l-163 13 -102 134 c-142 189 -139 196 77 196 l177 0 115 -152z m-684 -95 c53 -86 92 -170 86 -185 -17 -45 -3052 -42 -3052 4 0 36 130 275 174 319 25 25 210 29 1362 24 l1332 -5 98 -157z m-3077 114 c16 -43 -21 -83 -50 -54 -21 21 -6 87 21 87 9 0 21 -15 29 -33z m3384 -127 l97 -130 177 -6 c115 -4 187 3 205 18 39 32 60 7 28 -32 -32 -39 -376 -43 -423 -5 -33 27 -130 152 -188 243 -68 106 4 44 104 -88z m-3893 100 c0 -12 -97 -20 -250 -20 -153 0 -250 8 -250 20 0 12 97 20 250 20 153 0 250 -8 250 -20z m4840 0 c0 -12 -87 -20 -220 -20 -133 0 -220 8 -220 20 0 12 87 20 220 20 133 0 220 -8 220 -20z m-4512 -79 c51 -22 92 -45 92 -51 0 -28 -192 -90 -277 -90 -91 0 -283 55 -283 81 0 77 331 119 468 60z m-553 -56 c5 -15 -9 -25 -32 -25 -44 0 -70 26 -48 48 20 20 71 6 80 -23z m-3 -182 c-45 -44 -100 4 -67 58 22 35 26 35 60 5 32 -29 33 -37 7 -63z m768 76 c0 -38 -146 -250 -155 -224 -4 13 22 74 58 134 64 105 97 136 97 90z m3291 -81 c65 -103 79 -138 53 -138 -18 0 -144 184 -144 210 0 35 47 -2 91 -72z m745 18 c50 -50 -14 -129 -77 -95 -59 31 -36 119 31 119 12 0 33 -11 46 -24z m-2428 -56 c1367 0 1502 3 1535 33 34 31 37 31 37 0 0 -69 -90 -73 -1580 -73 -1481 0 -1580 4 -1580 71 0 28 4 28 44 0 40 -27 220 -31 1544 -31z m-1868 -20 c0 -11 -49 -20 -110 -20 -60 0 -110 9 -110 20 0 11 50 20 110 20 61 0 110 -9 110 -20z m3940 0 c0 -11 -53 -20 -120 -20 -67 0 -120 9 -120 20 0 11 53 20 120 20 67 0 120 -9 120 -20z"/> <path d="M2889 5419 c-44 -48 -21 -144 38 -156 113 -21 182 60 124 148 -39 60 -111 64 -162 8z m127 -54 c8 -54 -43 -80 -86 -45 -22 18 -24 34 -8 63 27 51 86 39 94 -18z"/> <path d="M4849 4878 c-21 -33 26 -71 53 -44 23 23 9 66 -22 66 -10 0 -24 -10 -31 -22z"/> <path d="M3260 4520 c-17 -32 -17 -50 1 -71 53 -64 169 -2 126 68 -32 51 -101 52 -127 3z"/> <path d="M1658 4513 c-64 -32 -75 -131 -20 -181 50 -45 131 -30 163 30 52 97 -45 199 -143 151z m92 -93 c0 -37 -12 -52 -45 -56 -55 -8 -80 43 -44 87 37 45 89 27 89 -31z"/> <path d="M4185 4515 c-92 -44 -74 -182 26 -207 110 -28 178 135 85 201 -51 36 -51 36 -111 6z m95 -65 c33 -40 11 -90 -40 -90 -45 0 -71 43 -53 90 15 38 61 39 93 0z"/> <path d="M260 2360 c-45 -45 -49 -66 -20 -121 57 -106 200 -79 200 38 0 108 -106 157 -180 83z m133 -50 c14 -36 -26 -90 -66 -90 -34 0 -56 49 -40 90 15 39 91 39 106 0z"/> <path d="M5511 2369 c-37 -38 -41 -131 -7 -165 61 -61 196 2 196 90 0 81 -131 132 -189 75z m125 -84 c9 -57 -48 -82 -90 -39 -43 42 -18 99 39 90 29 -4 47 -22 51 -51z"/> <path d="M2891 1249 c-52 -53 2 -169 79 -169 33 0 110 77 110 109 0 43 -58 91 -110 91 -26 0 -61 -14 -79 -31z"/> <path d="M2395 1086 c36 -5 94 -5 130 0 36 4 7 8 -65 8 -71 0 -101 -4 -65 -8z"/> <path d="M2835 825 c80 -4 210 -4 290 0 80 4 15 7 -145 7 -159 0 -225 -3 -145 -7z"/> <path d="M4660 624 c0 -21 114 -43 217 -44 44 0 64 8 58 25 -10 29 -275 47 -275 19z"/> <path d="M1626 495 c-29 -37 -126 -210 -126 -224 0 -6 648 -11 1440 -11 991 0 1440 7 1440 21 0 11 -31 70 -70 130 l-70 109 -1297 0 c-1015 0 -1302 -5 -1317 -25z m129 -40 c-13 -39 -115 -44 -115 -6 0 21 19 31 62 31 40 0 58 -9 53 -25z m180 0 c-4 -14 -37 -28 -71 -31 -51 -5 -61 0 -52 25 15 38 136 44 123 6z m180 0 c-9 -29 -135 -47 -135 -20 0 32 25 45 85 45 38 0 55 -9 50 -25z m180 0 c-4 -14 -37 -28 -71 -31 -51 -5 -61 0 -52 25 15 38 136 44 123 6z m185 -5 c0 -20 -20 -30 -60 -30 -40 0 -60 10 -60 30 0 20 20 30 60 30 40 0 60 -10 60 -30z m175 5 c-13 -39 -115 -44 -115 -6 0 21 19 31 62 31 40 0 58 -9 53 -25z m180 0 c-13 -39 -115 -44 -115 -6 0 21 19 31 62 31 40 0 58 -9 53 -25z m165 -5 c0 -20 -20 -30 -60 -30 -40 0 -60 10 -60 30 0 20 20 30 60 30 40 0 60 -10 60 -30z m180 0 c0 -20 -20 -30 -60 -30 -40 0 -60 10 -60 30 0 20 20 30 60 30 40 0 60 -10 60 -30z m175 -5 c13 -38 -108 -32 -123 6 -9 25 1 30 52 25 34 -3 67 -17 71 -31z m173 4 c9 -25 -1 -30 -52 -25 -83 8 -100 56 -20 56 36 0 65 -13 72 -31z m167 -4 c5 -16 -13 -25 -53 -25 -43 0 -62 10 -62 31 0 38 102 33 115 -6z m181 -1 c6 -20 -10 -25 -57 -20 -36 3 -70 18 -75 32 -6 20 10 25 57 20 36 -3 70 -18 75 -32z m184 6 c0 -20 -20 -30 -58 -30 -33 0 -63 13 -69 30 -9 23 4 30 58 30 48 0 69 -9 69 -30z m188 -1 c9 -25 -1 -30 -52 -25 -83 8 -100 56 -20 56 36 0 65 -13 72 -31z m-2573 -94 c-4 -14 -32 -28 -61 -31 -42 -5 -51 0 -42 25 15 37 115 43 103 6z m200 0 c-9 -29 -135 -47 -135 -20 0 32 25 45 85 45 38 0 55 -9 50 -25z m180 0 c-4 -14 -37 -28 -71 -31 -51 -5 -61 0 -52 25 15 38 136 44 123 6z m185 -5 c0 -20 -20 -30 -60 -30 -40 0 -60 10 -60 30 0 20 20 30 60 30 40 0 60 -10 60 -30z m195 5 c-9 -29 -135 -47 -135 -20 0 32 25 45 85 45 38 0 55 -9 50 -25z m785 -5 c0 -26 -54 -30 -369 -30 -320 0 -368 4 -358 30 17 45 727 45 727 0z m188 -1 c9 -25 -1 -30 -52 -25 -83 8 -100 56 -20 56 36 0 65 -13 72 -31z m292 0 c0 -25 -22 -30 -113 -25 -163 9 -170 56 -9 56 97 0 122 -6 122 -31z m228 0 c9 -25 -1 -30 -52 -25 -83 8 -100 56 -20 56 36 0 65 -13 72 -31z m188 -5 c6 -20 -10 -25 -57 -20 -36 3 -70 18 -75 32 -6 20 10 25 57 20 36 -3 70 -18 75 -32z m180 -1 c6 -18 -8 -24 -47 -20 -31 4 -60 19 -65 34 -6 18 8 24 47 20 31 -4 60 -19 65 -34z"/> </g> </svg> 